<?xml version="1.0" encoding="utf-8"?>
<!-- Generator: Adobe Illustrator 19.0.0, SVG Export Plug-In . SVG Version: 6.00 Build 0)  -->
<svg version="1.1" id="Capa_1" xmlns="http://www.w3.org/2000/svg" xmlns:xlink="http://www.w3.org/1999/xlink" x="0px" y="0px"
	 width="29.7px" height="29.7px" viewBox="-7 16.3 29.7 29.7" style="enable-background:new -7 16.3 29.7 29.7;"
	 xml:space="preserve">
<style type="text/css">
	.st0{fill:#0F6CAF;}
</style>
<g>
	<path class="st0" d="M16.9,46c-1.2,0-2.7-0.3-4.4-0.9c-3.6-1.4-7.5-4-11-7.6c-3.5-3.5-6.2-7.4-7.6-11c-1.2-3.3-1.2-6,0-7.2
		c0.2-0.2,0.4-0.4,0.5-0.6c1.1-1.2,2.4-2.5,4.1-2.4c1.2,0,2.3,0.8,3.4,2.2c3.4,4.2,1.9,5.7,0.1,7.5l-0.3,0.3C1.5,26.5,0.9,27.9,6,33
		c1.7,1.7,3.1,2.9,4.2,3.6c0.7,0.5,2,1.2,2.5,0.6l0.3-0.3c1.7-1.8,3.3-3.3,7.5,0.1c1.4,1.2,2.1,2.3,2.2,3.4c0.1,1.7-1.3,3-2.5,4.1
		c-0.2,0.2-0.4,0.4-0.6,0.5C19.1,45.7,18.1,46,16.9,46z M-1.6,17.3c-1.2,0-2.3,1.1-3.2,2.1C-5,19.6-5.2,19.8-5.4,20
		c-0.9,0.9-0.8,3.3,0.2,6.1c1.3,3.5,3.9,7.3,7.3,10.7c3.4,3.4,7.2,6,10.7,7.3c2.8,1.1,5.2,1.2,6.1,0.2c0.2-0.2,0.4-0.4,0.6-0.6
		c1-1,2.2-2.1,2.1-3.3c0-0.8-0.6-1.8-1.8-2.7c-3.5-2.8-4.5-1.8-6.1-0.2L13.4,38c-0.8,0.8-2,0.6-3.8-0.5c-1.2-0.8-2.7-2-4.4-3.8
		c-4.2-4.2-5.6-6.8-4.3-8.1l0.3-0.3C3,23.6,4,22.6,1.2,19.1C0.2,17.9-0.7,17.3-1.6,17.3C-1.5,17.3-1.6,17.3-1.6,17.3z"/>
</g>
</svg>
