<?xml version="1.0" encoding="utf-8"?>
<!-- Generator: Adobe Illustrator 19.0.0, SVG Export Plug-In . SVG Version: 6.00 Build 0)  -->
<svg version="1.1" id="Capa_1" xmlns="http://www.w3.org/2000/svg" xmlns:xlink="http://www.w3.org/1999/xlink" x="0px" y="0px"
	 width="49.7px" height="49.7px" viewBox="2 6.3 49.7 49.7" style="enable-background:new 2 6.3 49.7 49.7;" xml:space="preserve">
<style type="text/css">
	.st0{fill:#FFFFFF;}
</style>
<g>
	<g>
		<path class="st0" d="M26.8,6.3C13.1,6.3,2,17.5,2,31.2C2,44.9,13.1,56,26.8,56c13.7,0,24.8-11.1,24.8-24.8
			C51.7,17.5,40.5,6.3,26.8,6.3z M33,32h-4c0,6.5,0,14.4,0,14.4h-6c0,0,0-7.9,0-14.4h-2.8V27H23v-3.3c0-2.4,1.1-6,6-6l4.4,0v4.9
			c0,0-2.7,0-3.2,0S29,22.8,29,24v3h4.6L33,32z"/>
	</g>
</g>
</svg>
