<?xml version="1.0" encoding="utf-8"?>
<!-- Generator: Adobe Illustrator 19.0.0, SVG Export Plug-In . SVG Version: 6.00 Build 0)  -->
<svg version="1.1" id="Capa_1" xmlns="http://www.w3.org/2000/svg" xmlns:xlink="http://www.w3.org/1999/xlink" x="0px" y="0px"
	 width="31px" height="31px" viewBox="-6 16 31 31" style="enable-background:new -6 16 31 31;" xml:space="preserve">
<style type="text/css">
	.st0{fill:#0F6CAF;}
</style>
<g>
	<g>
		<path class="st0" d="M19.1,37.5c-0.1,0-0.2,0-0.3-0.1L13,32c-0.2-0.2-0.2-0.5,0-0.7c0.2-0.2,0.5-0.2,0.7,0l5.8,5.4
			c0.2,0.2,0.2,0.5,0,0.7C19.4,37.4,19.2,37.5,19.1,37.5z"/>
		<path class="st0" d="M-0.1,37.5c-0.1,0-0.3-0.1-0.4-0.2c-0.2-0.2-0.2-0.5,0-0.7l5.8-5.4c0.2-0.2,0.5-0.2,0.7,0
			c0.2,0.2,0.2,0.5,0,0.7l-5.8,5.4C0.1,37.5,0,37.5-0.1,37.5z"/>
	</g>
	<path class="st0" d="M22.5,42.5h-26C-4.9,42.5-6,41.4-6,40V23c0-1.4,1.1-2.5,2.5-2.5h26c1.4,0,2.5,1.1,2.5,2.5v17
		C25,41.4,23.9,42.5,22.5,42.5z M-3.5,21.5C-4.3,21.5-5,22.1-5,23v17c0,0.8,0.7,1.5,1.5,1.5h26c0.8,0,1.5-0.7,1.5-1.5V23
		c0-0.8-0.7-1.5-1.5-1.5H-3.5z"/>
	<path class="st0" d="M9.5,34c-0.7,0-1.3-0.2-1.8-0.7L-5.2,22.1c-0.2-0.2-0.2-0.5,0-0.7c0.2-0.2,0.5-0.2,0.7,0L8.3,32.6
		c0.6,0.6,1.7,0.6,2.4,0l12.8-11.2c0.2-0.2,0.5-0.2,0.7,0c0.2,0.2,0.2,0.5,0,0.7L11.3,33.3C10.8,33.8,10.2,34,9.5,34z"/>
</g>
</svg>
