<?xml version="1.0" encoding="utf-8"?>
<!-- Generator: Adobe Illustrator 19.0.0, SVG Export Plug-In . SVG Version: 6.00 Build 0)  -->
<svg version="1.1" id="Layer_1" xmlns="http://www.w3.org/2000/svg" xmlns:xlink="http://www.w3.org/1999/xlink" x="0px" y="0px"
	 width="45px" height="60px" viewBox="0 0 45 60" style="enable-background:new 0 0 45 60;" xml:space="preserve">
<style type="text/css">
	.st0{fill:#E9E8E0;}
	.st1{fill:#DAD7CB;}
	.st2{fill:#CD4C4D;}
	.st3{fill:#FFFFFF;}
</style>
<g>
	<path id="XMLID_13_" class="st0" d="M31.9,0H1.5C0.7,0,0,0.7,0,2.1v55.6c0,0.4,0.7,1,1.5,1h42c0.8,0,1.5-0.7,1.5-1v-44
		c0-0.7-0.1-1-0.3-1.1L32.6,0.3C32.4,0.1,32.2,0,31.9,0z"/>
	<polygon id="XMLID_12_" class="st1" points="32.5,0.2 32.5,12.6 44.9,12.6 	"/>
	<path class="st2" d="M13.6,35L13.6,35c-0.4,0-0.7-0.1-1-0.3c-1.1-0.8-1.2-1.7-1.2-2.3c0.2-1.7,2.3-3.5,6.3-5.3
		c1.6-3.5,3.1-7.7,4-11.3c-1-2.3-2.1-5.2-1.3-7c0.3-0.6,0.6-1.1,1.2-1.3c0.2-0.1,0.8-0.2,1.1-0.2c0.5,0,1,0.7,1.3,1.1
		c0.3,0.4,1,1.2-0.4,7.1c1.4,2.9,3.4,5.9,5.3,7.9c1.4-0.2,2.6-0.4,3.5-0.4c1.6,0,2.6,0.4,3,1.2c0.3,0.7,0.2,1.4-0.4,2.3
		c-0.6,0.8-1.4,1.2-2.3,1.2c-1.3,0-2.8-0.8-4.4-2.4c-3,0.6-6.4,1.7-9.2,3c-0.9,1.9-1.7,3.4-2.5,4.5C15.5,34.3,14.6,35,13.6,35z
		 M16.4,29.6c-2.2,1.3-3.2,2.3-3.2,2.9c0,0.1,0,0.3,0.5,0.7C13.8,33.1,14.7,32.7,16.4,29.6z M30.7,24.9c0.9,0.7,1.1,1,1.6,1
		c0.2,0,0.9,0,1.3-0.5c0.2-0.2,0.2-0.4,0.2-0.4c-0.1-0.1-0.3-0.2-1.2-0.2C32.1,24.8,31.4,24.8,30.7,24.9z M22.9,18
		c-0.7,2.6-1.7,5.4-2.8,7.9c2.2-0.8,4.6-1.6,6.8-2.1C25.5,22.2,24.1,20.2,22.9,18z M22.2,9.2c-0.1,0-1.4,1.8,0.1,3.4
		C23.3,10.3,22.3,9.2,22.2,9.2z"/>
	<path id="XMLID_6_" class="st2" d="M43.5,58.7h-42C0.7,58.7,0,58,0,57.2V40.9h45v16.3C45,58,44.4,58.7,43.5,58.7z"/>
	<g>
		<path class="st3" d="M11.4,55.6H9.7V45h3c0.4,0,0.9,0.1,1.3,0.2c0.4,0.1,0.8,0.4,1.2,0.6c0.3,0.3,0.6,0.6,0.8,1
			c0.2,0.4,0.3,0.9,0.3,1.4c0,0.5-0.1,1-0.3,1.5c-0.2,0.4-0.4,0.8-0.8,1.1c-0.3,0.3-0.7,0.5-1.2,0.7c-0.5,0.2-1,0.2-1.5,0.2h-1.3
			L11.4,55.6L11.4,55.6z M11.4,46.3v4.2H13c0.2,0,0.4,0,0.6-0.1c0.2-0.1,0.4-0.2,0.6-0.4c0.2-0.2,0.3-0.4,0.4-0.7
			c0.1-0.3,0.2-0.7,0.2-1.1c0-0.2,0-0.4-0.1-0.6c0-0.2-0.1-0.4-0.3-0.6c-0.1-0.2-0.4-0.4-0.6-0.5c-0.3-0.1-0.6-0.2-1.1-0.2
			L11.4,46.3L11.4,46.3z"/>
		<path class="st3" d="M26.9,50c0,0.9-0.1,1.6-0.3,2.2c-0.2,0.6-0.4,1.1-0.7,1.5c-0.3,0.4-0.6,0.7-1,1c-0.4,0.2-0.7,0.4-1,0.5
			c-0.3,0.1-0.6,0.2-0.9,0.2c-0.3,0-0.5,0-0.6,0h-4V45h3.2c0.9,0,1.7,0.1,2.3,0.4s1.2,0.7,1.7,1.1s0.8,1,1,1.6
			C26.8,48.8,26.9,49.4,26.9,50z M21.8,54.3c1.2,0,2-0.4,2.5-1.1c0.5-0.7,0.8-1.8,0.8-3.2c0-0.4-0.1-0.9-0.2-1.3
			c-0.1-0.4-0.3-0.8-0.6-1.2c-0.3-0.3-0.7-0.6-1.2-0.8c-0.5-0.2-1.2-0.3-2-0.3h-1v8C20.1,54.3,21.8,54.3,21.8,54.3z"/>
		<path id="XMLID_1_" class="st3" d="M31.2,46.3v3.3h4.4v1.2h-4.4v4.8h-1.7V45H36v1.3H31.2z"/>
	</g>
</g>
</svg>
