<?xml version="1.0" encoding="utf-8"?>
<!-- Generator: Adobe Illustrator 19.0.0, SVG Export Plug-In . SVG Version: 6.00 Build 0)  -->
<svg version="1.1" id="Capa_1" xmlns="http://www.w3.org/2000/svg" xmlns:xlink="http://www.w3.org/1999/xlink" x="0px" y="0px"
	 width="486.4px" height="486.4px" viewBox="220 -213.4 486.4 486.4" style="enable-background:new 220 -213.4 486.4 486.4;"
	 xml:space="preserve">
<style type="text/css">
	.st0{fill:#FFFFFF;}
</style>
<g>
	<g>
		<path class="st0" d="M463.2-213.4C328.9-213.4,220-104.5,220,29.8S328.9,273,463.2,273S706.4,164.1,706.4,29.8
			C706.4-104.5,597.5-213.4,463.2-213.4z M584.2-24.8l0.2,7.8c0,79.2-60.2,170.4-170.4,170.4c-33.8,0-65.3-9.9-91.8-26.9
			c4.7,0.5,9.5,0.9,14.3,0.9c28.1,0,53.9-9.6,74.4-25.6c-26.2-0.5-48.3-17.8-55.9-41.6c3.7,0.7,7.4,1,11.3,1
			c5.5,0,10.8-0.7,15.8-2.1c-27.4-5.5-48-29.7-48-58.7v-0.8c8.1,4.5,17.3,7.2,27.1,7.5C345-3.7,334.5-22,334.5-42.8
			c0-11,2.9-21.2,8.1-30.1c29.5,36.2,73.7,60.1,123.4,62.6c-1-4.4-1.6-9-1.6-13.6c0-33,26.8-59.9,59.9-59.9
			c17.2,0,32.8,7.3,43.7,18.9c13.6-2.7,26.4-7.7,38-14.5c-4.5,14-14,25.7-26.3,33.1c12.1-1.4,23.7-4.7,34.4-9.4
			C606.1-43.7,595.9-33.2,584.2-24.8z"/>
	</g>
</g>
</svg>
